<?xml version="1.0" standalone="no"?>
<!DOCTYPE svg PUBLIC "-//W3C//DTD SVG 20010904//EN"
 "http://www.w3.org/TR/2001/REC-SVG-20010904/DTD/svg10.dtd">
<svg version="1.0" xmlns="http://www.w3.org/2000/svg"
 width="1201.000000pt" height="1280.000000pt" viewBox="0 0 1201.000000 1280.000000"
 preserveAspectRatio="xMidYMid meet">
<g transform="translate(0.000000,1280.000000) scale(0.100000,-0.100000)"
fill="#000000" stroke="none">
<path d="M4110 12789 c-30 -4 -113 -15 -185 -25 -754 -96 -1381 -557 -1765
-1297 -38 -72 -88 -179 -111 -237 -39 -95 -44 -115 -48 -215 l-6 -110 -110
-57 c-195 -101 -445 -202 -723 -293 -29 -9 -59 -15 -66 -12 -8 3 -16 1 -18 -4
-4 -11 -94 -36 -148 -41 -28 -2 -35 1 -38 17 -2 11 -19 52 -38 92 -63 130
-174 217 -334 263 -88 26 -105 26 -134 5 -11 -8 -34 -25 -51 -37 -40 -28 -113
-118 -142 -175 -27 -53 -31 -135 -9 -186 7 -18 34 -63 60 -100 29 -44 46 -79
46 -98 0 -77 57 -255 126 -391 73 -146 195 -304 294 -383 51 -40 91 -89 179
-214 162 -231 183 -253 273 -279 116 -35 242 -61 398 -82 242 -34 326 -43 480
-54 47 -3 146 -11 220 -17 74 -5 169 -12 210 -14 238 -13 226 -10 309 -78 169
-138 461 -406 461 -423 0 -20 -85 -24 -495 -24 -399 1 -530 -6 -675 -37 -41
-9 -82 -17 -90 -17 -9 -1 -20 -5 -25 -8 -6 -3 -28 -11 -50 -18 -61 -20 -153
-68 -221 -116 -163 -115 -266 -334 -321 -680 -24 -150 -24 -459 0 -564 22 -96
84 -231 97 -210 6 8 10 25 10 37 0 12 11 30 24 40 13 10 49 52 79 95 31 42 77
93 103 115 25 21 69 61 97 89 71 71 213 161 397 252 235 117 370 166 370 133
0 -6 -62 -47 -137 -92 -649 -389 -1044 -773 -1109 -1078 -35 -166 0 -452 87
-721 91 -278 257 -608 362 -718 33 -34 55 -39 85 -21 16 10 29 4 83 -40 82
-67 149 -111 166 -111 16 0 11 24 -15 75 -35 68 -102 231 -102 247 0 20 74
370 126 598 42 182 75 251 195 412 82 111 273 317 283 307 3 -3 -33 -64 -80
-135 -107 -158 -201 -348 -256 -514 -35 -106 -42 -141 -46 -232 -5 -126 10
-187 70 -279 75 -118 202 -217 394 -312 60 -29 125 -63 144 -75 19 -12 49 -22
66 -22 17 0 51 -7 74 -15 23 -8 44 -15 46 -15 2 0 4 19 4 43 0 108 93 495 180
751 84 248 184 415 163 274 -4 -29 -8 -127 -8 -218 l0 -165 38 -68 c53 -96
107 -167 216 -284 113 -121 152 -145 230 -147 51 -1 56 1 53 19 -2 11 -23 44
-45 73 -78 99 -79 81 10 176 44 46 126 152 183 235 111 164 166 219 267 266
84 40 151 62 269 86 83 17 108 19 114 9 24 -39 63 -468 85 -925 31 -668 55
-958 116 -1395 29 -216 76 -488 94 -548 81 -272 334 -578 698 -846 76 -56 92
-76 61 -76 -8 0 -124 11 -257 25 -662 68 -1215 95 -1551 76 -386 -21 -476 -45
-654 -173 -64 -47 -141 -98 -171 -113 -72 -39 -127 -90 -195 -178 -63 -82 -69
-101 -31 -91 18 4 32 1 46 -12 19 -17 40 -19 219 -19 110 0 202 -3 205 -7 3
-3 -16 -22 -42 -41 -41 -30 -62 -37 -133 -47 -47 -6 -110 -17 -140 -25 -30 -8
-101 -23 -158 -35 -200 -40 -282 -89 -282 -168 0 -23 6 -45 15 -52 11 -9 14
-22 9 -46 -5 -28 -1 -38 23 -63 44 -44 116 -55 306 -48 86 3 157 2 157 -3 0
-4 -28 -24 -63 -44 -35 -19 -90 -55 -123 -79 -32 -24 -81 -49 -109 -56 -111
-30 -142 -49 -164 -101 -78 -181 79 -219 453 -110 251 72 435 71 1038 -9 422
-57 452 -55 1043 44 553 93 819 115 1140 95 302 -18 489 -49 818 -136 304 -81
379 -94 567 -101 245 -8 380 23 503 115 119 90 184 225 196 410 l6 97 30 -1
c17 -1 98 -5 180 -8 83 -4 159 -9 171 -11 18 -4 22 -16 32 -87 48 -341 444
-669 997 -827 158 -45 300 -70 570 -101 221 -25 250 -25 450 0 348 43 570 130
732 286 40 39 73 76 73 81 0 7 -59 11 -172 11 -656 1 -1029 282 -1040 786 l-3
111 160 80 c174 87 258 136 379 223 604 434 957 1099 1041 1960 8 86 20 202
25 257 15 147 12 273 -10 530 -33 379 -69 604 -147 910 -97 382 -220 709 -418
1110 -288 582 -646 1107 -1142 1675 -114 130 -531 559 -693 712 -628 594
-1345 1149 -2243 1738 -679 445 -804 529 -838 566 -48 51 -111 154 -257 417
-197 354 -324 537 -502 721 -248 257 -509 417 -832 510 -251 72 -627 112 -808
85z"/>
</g>
</svg>
